<svg version="1.1" xmlns="http://www.w3.org/2000/svg" xmlns:xlink="http://www.w3.org/1999/xlink" width="760.18505859375" height="358"><defs/><g><g transform="translate(-30,-6) scale(1,1)"><path fill="#C0C0C0" stroke="none" d="M 597.592529296875 34.5 C 597.592529296875 28.1487248 602.741254096875 23 609.092529296875 23 C 615.443804496875 23 620.592529296875 28.1487248 620.592529296875 34.5 C 620.592529296875 40.8512752 615.443804496875 46 609.092529296875 46 C 602.741254096875 46 597.592529296875 40.8512752 597.592529296875 34.5 Z" opacity="0.2"/></g><g transform="translate(-30,-6) scale(1,1)"><path fill="#ffffff" stroke="none" d="M 590.592529296875 27.5 C 590.592529296875 21.1487248 595.741254096875 16 602.092529296875 16 C 608.443804496875 16 613.592529296875 21.1487248 613.592529296875 27.5 C 613.592529296875 33.8512752 608.443804496875 39 602.092529296875 39 C 595.741254096875 39 590.592529296875 33.8512752 590.592529296875 27.5 Z"/></g><g transform="translate(-30,-6) scale(1,1)"><path fill="none" stroke="#000000" d="M 590.592529296875 27.5 C 590.592529296875 21.1487248 595.741254096875 16 602.092529296875 16 C 608.443804496875 16 613.592529296875 21.1487248 613.592529296875 27.5 C 613.592529296875 33.8512752 608.443804496875 39 602.092529296875 39 C 595.741254096875 39 590.592529296875 33.8512752 590.592529296875 27.5 Z" stroke-miterlimit="10"/></g><g transform="translate(-30,-6) scale(1,1)"><path fill="none" stroke="#000000" d="M 424 64 L 780.18505859375 64" stroke-miterlimit="10"/></g><g transform="translate(-30,-6) scale(1,1)"><g><path fill="none" stroke="none"/><text fill="#000000" stroke="none" font-family="Arial" font-size="13px" font-style="normal" font-weight="bold" text-decoration="none" x="566.685302734375" y="58.5">ICloudClient</text></g></g><g transform="translate(-30,-6) scale(1,1)"><g><path fill="none" stroke="none"/><text fill="#000000" stroke="none" font-family="Arial" font-size="13px" font-style="normal" font-weight="normal" text-decoration="none" x="429" y="81.5">+constructor(string: cloudRegion, string logPath)</text></g></g><g transform="translate(-30,-6) scale(1,1)"><g><path fill="none" stroke="none"/><text fill="#000000" stroke="none" font-family="Arial" font-size="13px" font-style="normal" font-weight="normal" text-decoration="none" x="429" y="96.5">+readParam(string: filePath, class: target): class</text></g></g><g transform="translate(-30,-6) scale(1,1)"><g><path fill="none" stroke="none"/><text fill="#000000" stroke="none" font-family="Arial" font-size="13px" font-style="normal" font-weight="normal" text-decoration="none" x="429" y="111.5">+log(string: message, type: integer): void</text></g></g><g transform="translate(-30,-6) scale(1,1)"><g><path fill="none" stroke="none"/><text fill="#000000" stroke="none" font-family="Arial" font-size="13px" font-style="normal" font-weight="normal" text-decoration="none" x="429" y="126.5">+exists(enum: type, string: name, string: vpcName): boolean</text></g></g><g transform="translate(-30,-6) scale(1,1)"><rect fill="#C0C0C0" stroke="none" x="535" y="271" width="144" height="44" opacity="0.2"/></g><g transform="translate(-30,-6) scale(1,1)"><rect fill="#ffffff" stroke="none" x="528" y="264" width="144" height="44"/></g><g transform="translate(-30,-6) scale(1,1)"><path fill="none" stroke="#000000" d="M 528 264 L 672 264 L 672 308 L 528 308 L 528 264 Z Z" stroke-miterlimit="10"/></g><g transform="translate(-30,-6) scale(1,1)"><path fill="none" stroke="#000000" d="M 528 289 L 672 289" stroke-miterlimit="10"/></g><g transform="translate(-30,-6) scale(1,1)"><path fill="none" stroke="#000000" d="M 528 299 L 672 299" stroke-miterlimit="10"/></g><g transform="translate(-30,-6) scale(1,1)"><g><path fill="none" stroke="none"/><text fill="#000000" stroke="none" font-family="Arial" font-size="13px" font-style="normal" font-weight="bold" text-decoration="none" x="541.95703125" y="283.5">AwsCloudClientImpl</text></g></g><g transform="translate(-30,-6) scale(1,1)"><rect fill="#C0C0C0" stroke="none" x="47" y="231" width="247.06884765625" height="130" opacity="0.2"/></g><g transform="translate(-30,-6) scale(1,1)"><rect fill="#ffffff" stroke="none" x="40" y="224" width="247.06884765625" height="130"/></g><g transform="translate(-30,-6) scale(1,1)"><path fill="none" stroke="#000000" d="M 40 224 L 287.06884765625 224 L 287.06884765625 354 L 40 354 L 40 224 Z Z" stroke-miterlimit="10"/></g><g transform="translate(-30,-6) scale(1,1)"><path fill="none" stroke="#000000" d="M 40 249 L 287.06884765625 249" stroke-miterlimit="10"/></g><g transform="translate(-30,-6) scale(1,1)"><path fill="none" stroke="#000000" d="M 40 302 L 287.06884765625 302" stroke-miterlimit="10"/></g><g transform="translate(-30,-6) scale(1,1)"><g><path fill="none" stroke="none"/><text fill="#000000" stroke="none" font-family="Arial" font-size="13px" font-style="normal" font-weight="bold" text-decoration="none" x="143.294921875" y="243.5">Logger</text></g></g><g transform="translate(-30,-6) scale(1,1)"><g><path fill="none" stroke="none"/><text fill="#000000" stroke="none" font-family="Arial" font-size="13px" font-style="normal" font-weight="normal" text-decoration="none" x="45" y="266.5">-logger: logger</text><path fill="none" stroke="#000000" d="M 45 266.5 L 128.8271484375 266.5" stroke-miterlimit="10"/></g></g><g transform="translate(-30,-6) scale(1,1)"><g><path fill="none" stroke="none"/><text fill="#000000" stroke="none" font-family="Arial" font-size="13px" font-style="normal" font-weight="normal" text-decoration="none" x="45" y="281.5">+integer: ERROR {readOnly}</text><path fill="none" stroke="#000000" d="M 45 281.5 L 211.55615234375 281.5" stroke-miterlimit="10"/></g></g><g transform="translate(-30,-6) scale(1,1)"><g><path fill="none" stroke="none"/><text fill="#000000" stroke="none" font-family="Arial" font-size="13px" font-style="normal" font-weight="normal" text-decoration="none" x="45" y="296.5">+integer: INFO {readOnly}</text><path fill="none" stroke="#000000" d="M 45 296.5 L 195.66162109375 296.5" stroke-miterlimit="10"/></g></g><g transform="translate(-30,-6) scale(1,1)"><g><path fill="none" stroke="none"/><text fill="#000000" stroke="none" font-family="Arial" font-size="13px" font-style="normal" font-weight="normal" text-decoration="none" x="45" y="319.5">-setupLogger(string: path): void</text><path fill="none" stroke="#000000" d="M 45 319.5 L 225.654296875 319.5" stroke-miterlimit="10"/></g></g><g transform="translate(-30,-6) scale(1,1)"><g><path fill="none" stroke="none"/><text fill="#000000" stroke="none" font-family="Arial" font-size="13px" font-style="normal" font-weight="normal" text-decoration="none" x="45" y="334.5">+info(string: message, string: path): void</text></g></g><g transform="translate(-30,-6) scale(1,1)"><g><path fill="none" stroke="none"/><text fill="#000000" stroke="none" font-family="Arial" font-size="13px" font-style="normal" font-weight="normal" text-decoration="none" x="45" y="349.5">+error(string: message, string: path): void</text></g></g><g transform="translate(-30,-6) scale(1,1)"><path fill="none" stroke="#000000" d="M 527 287 L 288 288" stroke-miterlimit="10" stroke-dasharray="3"/></g><g transform="translate(-30,-6) scale(1,1)"><path fill="none" stroke="#000000" d="M 298.1449730105278 283.7479978109527 L 288 288 L 298.18019879219406 292.1669596292033" stroke-miterlimit="10"/></g><g transform="translate(-30,-6) scale(1,1)"><path fill="none" stroke="#000000" d="M 600 263 L 601 133" stroke-miterlimit="10"/></g><g transform="translate(-30,-6) scale(1,1)"><path fill="#FFFFFF" stroke="none" d="M 609.2624422207313 153.38950829591232 L 601 133 L 592.4248693423422 153.2599885045401"/></g><g transform="translate(-30,-6) scale(1,1)"><path fill="none" stroke="#000000" d="M 609.2624422207313 153.38950829591232 L 601 133 L 592.4248693423422 153.2599885045401 L 609.2624422207313 153.38950829591232" stroke-miterlimit="10"/></g></g></svg>
