<?xml version="1.0" encoding="UTF-8" standalone="no"?><svg xmlns="http://www.w3.org/2000/svg" xmlns:xlink="http://www.w3.org/1999/xlink" contentStyleType="text/css" height="546px" preserveAspectRatio="none" style="width:997px;height:546px;background:#FFFFFF;" version="1.1" viewBox="0 0 997 546" width="997px" zoomAndPan="magnify"><defs/><g><!--MD5=[2c2e2644034c00788261e03c85b06837]
cluster Core--><g id="cluster_Core"><path d="M8.5,6 L47.5,6 A3.75,3.75 0 0 1 50,8.5 L57,28.2969 L987.5,28.2969 A2.5,2.5 0 0 1 990,30.7969 L990,536.5 A2.5,2.5 0 0 1 987.5,539 L8.5,539 A2.5,2.5 0 0 1 6,536.5 L6,8.5 A2.5,2.5 0 0 1 8.5,6 " style="stroke:#000000;stroke-width:1.5;fill:none;"/><line style="stroke:#000000;stroke-width:1.5;fill:none;" x1="6" x2="57" y1="28.2969" y2="28.2969"/><text fill="#000000" font-family="sans-serif" font-size="14" font-weight="bold" lengthAdjust="spacing" textLength="38" x="10" y="20.9951">Core</text></g><!--MD5=[982b636854f4c7b40bdfc3be7b88777d]
class ICloudClient--><g id="elem_ICloudClient"><rect codeLine="6" fill="#F1F1F1" height="113.1875" id="ICloudClient" rx="2.5" ry="2.5" style="stroke:#181818;stroke-width:0.5;" width="359" x="362.5" y="41"/><ellipse cx="496.25" cy="57" fill="#B4A7E5" rx="11" ry="11" style="stroke:#181818;stroke-width:1.0;"/><path d="M492.1719,52.7656 L492.1719,50.6094 L499.5625,50.6094 L499.5625,52.7656 L497.0938,52.7656 L497.0938,60.8438 L499.5625,60.8438 L499.5625,63 L492.1719,63 L492.1719,60.8438 L494.6406,60.8438 L494.6406,52.7656 L492.1719,52.7656 Z " fill="#000000"/><text fill="#000000" font-family="sans-serif" font-size="14" font-style="italic" lengthAdjust="spacing" textLength="83" x="516.75" y="61.8467">ICloudClient</text><line style="stroke:#181818;stroke-width:0.5;" x1="363.5" x2="720.5" y1="73" y2="73"/><line style="stroke:#181818;stroke-width:0.5;" x1="363.5" x2="720.5" y1="81" y2="81"/><ellipse cx="373.5" cy="92" fill="#84BE84" rx="3" ry="3" style="stroke:#038048;stroke-width:1.0;"/><text fill="#000000" font-family="sans-serif" font-size="14" lengthAdjust="spacing" textLength="333" x="382.5" y="97.9951">constructor(cloudRegion: string, logPath: string)</text><ellipse cx="373.5" cy="108.2969" fill="#84BE84" rx="3" ry="3" style="stroke:#038048;stroke-width:1.0;"/><text fill="#000000" font-family="sans-serif" font-size="14" lengthAdjust="spacing" textLength="316" x="382.5" y="114.292">readParam(path: string, target: object): object</text><ellipse cx="373.5" cy="124.5938" fill="#84BE84" rx="3" ry="3" style="stroke:#038048;stroke-width:1.0;"/><text fill="#000000" font-family="sans-serif" font-size="14" lengthAdjust="spacing" textLength="267" x="382.5" y="130.5889">log(message: string, type: enum): void</text><ellipse cx="373.5" cy="140.8906" fill="#84BE84" rx="3" ry="3" style="stroke:#038048;stroke-width:1.0;"/><text fill="#000000" font-family="sans-serif" font-size="14" lengthAdjust="spacing" textLength="289" x="382.5" y="146.8857">exists(type: enum, name: string): boolean</text></g><!--MD5=[8cec77b46fb7908c75091919cb9b9196]
class AwsCloudClientImpl--><g id="elem_AwsCloudClientImpl"><rect codeLine="13" fill="#F1F1F1" height="292.4531" id="AwsCloudClientImpl" rx="2.5" ry="2.5" style="stroke:#181818;stroke-width:0.5;" width="601" x="224.5" y="231"/><ellipse cx="453.25" cy="247" fill="#ADD1B2" rx="11" ry="11" style="stroke:#181818;stroke-width:1.0;"/><path d="M456.2188,252.6406 Q455.6406,252.9375 455,253.0781 Q454.3594,253.2344 453.6563,253.2344 Q451.1563,253.2344 449.8281,251.5938 Q448.5156,249.9375 448.5156,246.8125 Q448.5156,243.6875 449.8281,242.0313 Q451.1563,240.375 453.6563,240.375 Q454.3594,240.375 455,240.5313 Q455.6563,240.6875 456.2188,240.9844 L456.2188,243.7031 Q455.5938,243.125 455,242.8594 Q454.4063,242.5781 453.7813,242.5781 Q452.4375,242.5781 451.75,243.6563 Q451.0625,244.7188 451.0625,246.8125 Q451.0625,248.9063 451.75,249.9844 Q452.4375,251.0469 453.7813,251.0469 Q454.4063,251.0469 455,250.7813 Q455.5938,250.5 456.2188,249.9219 L456.2188,252.6406 Z " fill="#000000"/><text fill="#000000" font-family="sans-serif" font-size="14" lengthAdjust="spacing" textLength="135" x="473.75" y="251.8467">AwsCloudClientImpl</text><line style="stroke:#181818;stroke-width:0.5;" x1="225.5" x2="824.5" y1="263" y2="263"/><rect fill="none" height="6" style="stroke:#C82930;stroke-width:1.0;" width="6" x="232.5" y="271"/><text fill="#000000" font-family="sans-serif" font-size="14" lengthAdjust="spacing" textLength="153" x="244.5" y="279.9951">cloudResource: string</text><rect fill="none" height="6" style="stroke:#C82930;stroke-width:1.0;" width="6" x="232.5" y="287.2969"/><text fill="#000000" font-family="sans-serif" font-size="14" lengthAdjust="spacing" textLength="116" x="244.5" y="296.292">accountId: string</text><rect fill="none" height="6" style="stroke:#C82930;stroke-width:1.0;" width="6" x="232.5" y="303.5938"/><text fill="#000000" font-family="sans-serif" font-size="14" lengthAdjust="spacing" textLength="100" x="244.5" y="312.5889">logPath: string</text><ellipse cx="235.5" cy="322.8906" fill="none" rx="3" ry="3" style="stroke:#038048;stroke-width:1.0;"/><text fill="#000000" font-family="sans-serif" font-size="14" lengthAdjust="spacing" textLength="144" x="244.5" y="328.8857">connection: aws.ec2</text><ellipse cx="235.5" cy="339.1875" fill="none" rx="3" ry="3" style="stroke:#038048;stroke-width:1.0;"/><text fill="#000000" font-family="sans-serif" font-size="14" lengthAdjust="spacing" text-decoration="underline" textLength="140" x="244.5" y="345.1826">resouceType: enum</text><line style="stroke:#181818;stroke-width:0.5;" x1="225.5" x2="824.5" y1="352.4844" y2="352.4844"/><ellipse cx="235.5" cy="363.4844" fill="#84BE84" rx="3" ry="3" style="stroke:#038048;stroke-width:1.0;"/><text fill="#000000" font-family="sans-serif" font-size="14" lengthAdjust="spacing" text-decoration="underline" textLength="575" x="244.5" y="369.4795">initialize(cloudRegion: string, logPath: string, accountId: string): AwsCloudClientImpl</text><ellipse cx="235.5" cy="379.7813" fill="#84BE84" rx="3" ry="3" style="stroke:#038048;stroke-width:1.0;"/><text fill="#000000" font-family="sans-serif" font-size="14" lengthAdjust="spacing" textLength="251" x="244.5" y="385.7764">regionExists(region: string): boolean</text><rect fill="#F24D5C" height="6" style="stroke:#C82930;stroke-width:1.0;" width="6" x="232.5" y="393.0781"/><text fill="#000000" font-family="sans-serif" font-size="14" lengthAdjust="spacing" textLength="226" x="244.5" y="402.0732">vpcExists(name: string): boolean</text><rect fill="#F24D5C" height="6" style="stroke:#C82930;stroke-width:1.0;" width="6" x="232.5" y="409.375"/><text fill="#000000" font-family="sans-serif" font-size="14" lengthAdjust="spacing" textLength="261" x="244.5" y="418.3701">instanceExists(name: string): boolean</text><rect fill="#F24D5C" height="6" style="stroke:#C82930;stroke-width:1.0;" width="6" x="232.5" y="425.6719"/><text fill="#000000" font-family="sans-serif" font-size="14" lengthAdjust="spacing" textLength="244" x="244.5" y="434.667">imageExists(name: string): boolean</text><rect fill="#F24D5C" height="6" style="stroke:#C82930;stroke-width:1.0;" width="6" x="232.5" y="441.9688"/><text fill="#000000" font-family="sans-serif" font-size="14" lengthAdjust="spacing" textLength="251" x="244.5" y="450.9639">keypairExists(name: string): boolean</text><rect fill="#F24D5C" height="6" style="stroke:#C82930;stroke-width:1.0;" width="6" x="232.5" y="458.2656"/><text fill="#000000" font-family="sans-serif" font-size="14" lengthAdjust="spacing" textLength="252" x="244.5" y="467.2607">budgetExists(name: string): boolean</text><rect fill="#F24D5C" height="6" style="stroke:#C82930;stroke-width:1.0;" width="6" x="232.5" y="474.5625"/><text fill="#000000" font-family="sans-serif" font-size="14" lengthAdjust="spacing" textLength="251" x="244.5" y="483.5576">subnetExists(name: string): boolean</text><rect fill="#F24D5C" height="6" style="stroke:#C82930;stroke-width:1.0;" width="6" x="232.5" y="490.8594"/><text fill="#000000" font-family="sans-serif" font-size="14" lengthAdjust="spacing" textLength="315" x="244.5" y="499.8545">internetGatewayExists(name: string): boolean</text><rect fill="#F24D5C" height="6" style="stroke:#C82930;stroke-width:1.0;" width="6" x="232.5" y="507.1563"/><text fill="#000000" font-family="sans-serif" font-size="14" lengthAdjust="spacing" textLength="267" x="244.5" y="516.1514">snapshotExists(name: string): boolean</text></g><!--MD5=[b8cfd8c4119a3b0a7a46bfc5fc780f85]
class Error--><g id="elem_Error"><rect codeLine="32" fill="#F1F1F1" height="48" id="Error" rx="2.5" ry="2.5" style="stroke:#181818;stroke-width:0.5;" width="65" x="860.5" y="353"/><ellipse cx="875.5" cy="369" fill="#ADD1B2" rx="11" ry="11" style="stroke:#181818;stroke-width:1.0;"/><path d="M878.4688,374.6406 Q877.8906,374.9375 877.25,375.0781 Q876.6094,375.2344 875.9063,375.2344 Q873.4063,375.2344 872.0781,373.5938 Q870.7656,371.9375 870.7656,368.8125 Q870.7656,365.6875 872.0781,364.0313 Q873.4063,362.375 875.9063,362.375 Q876.6094,362.375 877.25,362.5313 Q877.9063,362.6875 878.4688,362.9844 L878.4688,365.7031 Q877.8438,365.125 877.25,364.8594 Q876.6563,364.5781 876.0313,364.5781 Q874.6875,364.5781 874,365.6563 Q873.3125,366.7188 873.3125,368.8125 Q873.3125,370.9063 874,371.9844 Q874.6875,373.0469 876.0313,373.0469 Q876.6563,373.0469 877.25,372.7813 Q877.8438,372.5 878.4688,371.9219 L878.4688,374.6406 Z " fill="#000000"/><text fill="#000000" font-family="sans-serif" font-size="14" lengthAdjust="spacing" textLength="33" x="889.5" y="373.8467">Error</text><line style="stroke:#181818;stroke-width:0.5;" x1="861.5" x2="924.5" y1="385" y2="385"/><line style="stroke:#181818;stroke-width:0.5;" x1="861.5" x2="924.5" y1="393" y2="393"/></g><!--MD5=[e501adec32043ff91bfa61d466b69e6a]
class RegionNotFoundException--><g id="elem_RegionNotFoundException"><rect codeLine="33" fill="#F1F1F1" height="48" id="RegionNotFoundException" rx="2.5" ry="2.5" style="stroke:#181818;stroke-width:0.5;" width="217" x="756.5" y="73.5"/><ellipse cx="771.5" cy="89.5" fill="#ADD1B2" rx="11" ry="11" style="stroke:#181818;stroke-width:1.0;"/><path d="M774.4688,95.1406 Q773.8906,95.4375 773.25,95.5781 Q772.6094,95.7344 771.9063,95.7344 Q769.4063,95.7344 768.0781,94.0938 Q766.7656,92.4375 766.7656,89.3125 Q766.7656,86.1875 768.0781,84.5313 Q769.4063,82.875 771.9063,82.875 Q772.6094,82.875 773.25,83.0313 Q773.9063,83.1875 774.4688,83.4844 L774.4688,86.2031 Q773.8438,85.625 773.25,85.3594 Q772.6563,85.0781 772.0313,85.0781 Q770.6875,85.0781 770,86.1563 Q769.3125,87.2188 769.3125,89.3125 Q769.3125,91.4063 770,92.4844 Q770.6875,93.5469 772.0313,93.5469 Q772.6563,93.5469 773.25,93.2813 Q773.8438,93 774.4688,92.4219 L774.4688,95.1406 Z " fill="#000000"/><text fill="#000000" font-family="sans-serif" font-size="14" lengthAdjust="spacing" textLength="185" x="785.5" y="94.3467">RegionNotFoundException</text><line style="stroke:#181818;stroke-width:0.5;" x1="757.5" x2="972.5" y1="105.5" y2="105.5"/><line style="stroke:#181818;stroke-width:0.5;" x1="757.5" x2="972.5" y1="113.5" y2="113.5"/></g><!--MD5=[248f897e4bb16c2722904b15df30346f]
class Logger--><g id="elem_Logger"><rect codeLine="35" fill="#F1F1F1" height="113.1875" id="Logger" rx="2.5" ry="2.5" style="stroke:#181818;stroke-width:0.5;" width="305" x="22.5" y="41"/><ellipse cx="146.75" cy="57" fill="#ADD1B2" rx="11" ry="11" style="stroke:#181818;stroke-width:1.0;"/><path d="M149.7188,62.6406 Q149.1406,62.9375 148.5,63.0781 Q147.8594,63.2344 147.1563,63.2344 Q144.6563,63.2344 143.3281,61.5938 Q142.0156,59.9375 142.0156,56.8125 Q142.0156,53.6875 143.3281,52.0313 Q144.6563,50.375 147.1563,50.375 Q147.8594,50.375 148.5,50.5313 Q149.1563,50.6875 149.7188,50.9844 L149.7188,53.7031 Q149.0938,53.125 148.5,52.8594 Q147.9063,52.5781 147.2813,52.5781 Q145.9375,52.5781 145.25,53.6563 Q144.5625,54.7188 144.5625,56.8125 Q144.5625,58.9063 145.25,59.9844 Q145.9375,61.0469 147.2813,61.0469 Q147.9063,61.0469 148.5,60.7813 Q149.0938,60.5 149.7188,59.9219 L149.7188,62.6406 Z " fill="#000000"/><text fill="#000000" font-family="sans-serif" font-size="14" lengthAdjust="spacing" textLength="48" x="167.25" y="61.8467">Logger</text><line style="stroke:#181818;stroke-width:0.5;" x1="23.5" x2="326.5" y1="73" y2="73"/><ellipse cx="33.5" cy="84" fill="none" rx="3" ry="3" style="stroke:#038048;stroke-width:1.0;"/><text fill="#000000" font-family="sans-serif" font-size="14" lengthAdjust="spacing" text-decoration="underline" textLength="147" x="42.5" y="89.9951">messageType: enum</text><line style="stroke:#181818;stroke-width:0.5;" x1="23.5" x2="326.5" y1="97.2969" y2="97.2969"/><rect fill="#F24D5C" height="6" style="stroke:#C82930;stroke-width:1.0;" width="6" x="30.5" y="105.2969"/><text fill="#000000" font-family="sans-serif" font-size="14" lengthAdjust="spacing" textLength="214" x="42.5" y="114.292">setupLogger(path: string): void</text><ellipse cx="33.5" cy="124.5938" fill="#84BE84" rx="3" ry="3" style="stroke:#038048;stroke-width:1.0;"/><text fill="#000000" font-family="sans-serif" font-size="14" lengthAdjust="spacing" textLength="271" x="42.5" y="130.5889">info(message: string, path: string): void</text><ellipse cx="33.5" cy="140.8906" fill="#84BE84" rx="3" ry="3" style="stroke:#038048;stroke-width:1.0;"/><text fill="#000000" font-family="sans-serif" font-size="14" lengthAdjust="spacing" textLength="279" x="42.5" y="146.8857">error(message: string, path: string): void</text></g><!--MD5=[5d5527c344658f30b510da06458ece2e]
reverse link ICloudClient to AwsCloudClientImpl--><g id="link_ICloudClient_AwsCloudClientImpl"><path codeLine="44" d="M537.34,174.49 C536.27,192.11 535.08,211.44 533.89,230.94 " fill="none" id="ICloudClient-backto-AwsCloudClientImpl" style="stroke:#181818;stroke-width:1.0;stroke-dasharray:7.0,7.0;"/><polygon fill="none" points="530.37,173.86,538.58,154.32,544.34,174.71,530.37,173.86" style="stroke:#181818;stroke-width:1.0;"/></g><!--MD5=[22ca73c19c7190df5500cbf6d1361bc1]
reverse link Logger to AwsCloudClientImpl--><g id="link_Logger_AwsCloudClientImpl"><path codeLine="45" d="M249.42,157.5 C276.84,179.24 309.25,204.94 342.04,230.94 " fill="none" id="Logger-backto-AwsCloudClientImpl" style="stroke:#181818;stroke-width:1.0;stroke-dasharray:7.0,7.0;"/><polygon fill="#181818" points="245.41,154.32,249.982,163.0434,249.3296,157.4242,254.9488,156.7719,245.41,154.32" style="stroke:#181818;stroke-width:1.0;"/></g><!--MD5=[dbfeddb9d95a7192b17d902f308005ff]
reverse link RegionNotFoundException to AwsCloudClientImpl--><g id="link_RegionNotFoundException_AwsCloudClientImpl"><path codeLine="46" d="M832.55,124.98 C801.72,150.15 752.77,190.1 702.91,230.79 " fill="none" id="RegionNotFoundException-backto-AwsCloudClientImpl" style="stroke:#181818;stroke-width:1.0;stroke-dasharray:7.0,7.0;"/><polygon fill="#181818" points="836.6,121.68,827.0973,124.268,832.7251,124.84,832.1532,130.4678,836.6,121.68" style="stroke:#181818;stroke-width:1.0;"/><text fill="#000000" font-family="sans-serif" font-size="13" lengthAdjust="spacing" textLength="42" x="756" y="197.0669">throws</text></g><!--MD5=[b421de5fd846d96441f227b11bddfe62]
reverse link RegionNotFoundException to Error--><g id="link_RegionNotFoundException_Error"><path codeLine="47" d="M869.36,141.68 C875.36,201.15 885.95,306.16 890.65,352.69 " fill="none" id="RegionNotFoundException-backto-Error" style="stroke:#181818;stroke-width:1.0;"/><polygon fill="none" points="862.38,142.28,867.34,121.68,876.31,140.88,862.38,142.28" style="stroke:#181818;stroke-width:1.0;"/></g><!--MD5=[7da8712b748090d0e32fdbf50e67e40a]
@startuml
'https://plantuml.com/class-diagram

package "Core"{

    'classes and interfaces
    interface ICloudClient{
        +constructor(cloudRegion: string, logPath: string)
        +readParam(path: string, target: object): object
        +log(message: string, type: enum): void
        +exists(type: enum, name: string): boolean
    }

    class AwsCloudClientImpl {
        -cloudResource: string
        -accountId: string
        -logPath: string
        +connection: aws.ec2
        {static} +resouceType: enum

        {static} +initialize(cloudRegion: string, logPath: string, accountId: string): AwsCloudClientImpl
        +regionExists(region: string): boolean
        -vpcExists(name: string): boolean
        -instanceExists(name: string): boolean
        -imageExists(name: string): boolean
        -keypairExists(name: string): boolean
        -budgetExists(name: string): boolean
        -subnetExists(name: string): boolean
        -internetGatewayExists(name: string): boolean
        -snapshotExists(name: string): boolean
    }

    class Error
    class RegionNotFoundException

    class Logger {
        {static} +messageType: enum

        -setupLogger(path: string): void
        +info(message: string, path: string): void
        +error(message: string, path: string): void
    }

    'relations
    ICloudClient <|.. AwsCloudClientImpl
    Logger <.. AwsCloudClientImpl
    RegionNotFoundException <.. AwsCloudClientImpl: throws
    RegionNotFoundException <|- - Error
}

@enduml

@startuml

package "Core"{

    interface ICloudClient{
        +constructor(cloudRegion: string, logPath: string)
        +readParam(path: string, target: object): object
        +log(message: string, type: enum): void
        +exists(type: enum, name: string): boolean
    }

    class AwsCloudClientImpl {
        -cloudResource: string
        -accountId: string
        -logPath: string
        +connection: aws.ec2
        {static} +resouceType: enum

        {static} +initialize(cloudRegion: string, logPath: string, accountId: string): AwsCloudClientImpl
        +regionExists(region: string): boolean
        -vpcExists(name: string): boolean
        -instanceExists(name: string): boolean
        -imageExists(name: string): boolean
        -keypairExists(name: string): boolean
        -budgetExists(name: string): boolean
        -subnetExists(name: string): boolean
        -internetGatewayExists(name: string): boolean
        -snapshotExists(name: string): boolean
    }

    class Error
    class RegionNotFoundException

    class Logger {
        {static} +messageType: enum

        -setupLogger(path: string): void
        +info(message: string, path: string): void
        +error(message: string, path: string): void
    }

    ICloudClient <|.. AwsCloudClientImpl
    Logger <.. AwsCloudClientImpl
    RegionNotFoundException <.. AwsCloudClientImpl: throws
    RegionNotFoundException <|- - Error
}

@enduml

PlantUML version 1.2022.5(Sat Apr 30 12:55:52 CEST 2022)
(GPL source distribution)
Java Runtime: OpenJDK Runtime Environment
JVM: OpenJDK 64-Bit Server VM
Default Encoding: UTF-8
Language: en
Country: US
--></g></svg>