<?xml version="1.0" encoding="UTF-8" standalone="no"?><svg xmlns="http://www.w3.org/2000/svg" xmlns:xlink="http://www.w3.org/1999/xlink" contentStyleType="text/css" height="936px" preserveAspectRatio="none" style="width:857px;height:936px;background:#FFFFFF;" version="1.1" viewBox="0 0 857 936" width="857px" zoomAndPan="magnify"><defs/><g><!--MD5=[2c2e2644034c00788261e03c85b06837]
cluster Core--><g id="cluster_Core"><path d="M8.5,6 L47.5,6 A3.75,3.75 0 0 1 50,8.5 L57,28.2969 L847.5,28.2969 A2.5,2.5 0 0 1 850,30.7969 L850,926.5 A2.5,2.5 0 0 1 847.5,929 L8.5,929 A2.5,2.5 0 0 1 6,926.5 L6,8.5 A2.5,2.5 0 0 1 8.5,6 " style="stroke:#000000;stroke-width:1.5;fill:none;"/><line style="stroke:#000000;stroke-width:1.5;fill:none;" x1="6" x2="57" y1="28.2969" y2="28.2969"/><text fill="#000000" font-family="sans-serif" font-size="14" font-weight="bold" lengthAdjust="spacing" textLength="38" x="10" y="20.9951">Core</text></g><!--MD5=[982b636854f4c7b40bdfc3be7b88777d]
class ICloudClient--><g id="elem_ICloudClient"><rect codeLine="6" fill="#F1F1F1" height="113.1875" id="ICloudClient" rx="2.5" ry="2.5" style="stroke:#181818;stroke-width:0.5;" width="359" x="474.5" y="439"/><ellipse cx="608.25" cy="455" fill="#B4A7E5" rx="11" ry="11" style="stroke:#181818;stroke-width:1.0;"/><path d="M604.1719,450.7656 L604.1719,448.6094 L611.5625,448.6094 L611.5625,450.7656 L609.0938,450.7656 L609.0938,458.8438 L611.5625,458.8438 L611.5625,461 L604.1719,461 L604.1719,458.8438 L606.6406,458.8438 L606.6406,450.7656 L604.1719,450.7656 Z " fill="#000000"/><text fill="#000000" font-family="sans-serif" font-size="14" font-style="italic" lengthAdjust="spacing" textLength="83" x="628.75" y="459.8467">ICloudClient</text><line style="stroke:#181818;stroke-width:0.5;" x1="475.5" x2="832.5" y1="471" y2="471"/><line style="stroke:#181818;stroke-width:0.5;" x1="475.5" x2="832.5" y1="479" y2="479"/><ellipse cx="485.5" cy="490" fill="#84BE84" rx="3" ry="3" style="stroke:#038048;stroke-width:1.0;"/><text fill="#000000" font-family="sans-serif" font-size="14" lengthAdjust="spacing" textLength="333" x="494.5" y="495.9951">constructor(cloudRegion: string, logPath: string)</text><ellipse cx="485.5" cy="506.2969" fill="#84BE84" rx="3" ry="3" style="stroke:#038048;stroke-width:1.0;"/><text fill="#000000" font-family="sans-serif" font-size="14" lengthAdjust="spacing" textLength="316" x="494.5" y="512.292">readParam(path: string, target: object): object</text><ellipse cx="485.5" cy="522.5938" fill="#84BE84" rx="3" ry="3" style="stroke:#038048;stroke-width:1.0;"/><text fill="#000000" font-family="sans-serif" font-size="14" lengthAdjust="spacing" textLength="267" x="494.5" y="528.5889">log(message: string, type: enum): void</text><ellipse cx="485.5" cy="538.8906" fill="#84BE84" rx="3" ry="3" style="stroke:#038048;stroke-width:1.0;"/><text fill="#000000" font-family="sans-serif" font-size="14" lengthAdjust="spacing" textLength="289" x="494.5" y="544.8857">exists(type: enum, name: string): boolean</text></g><!--MD5=[8cec77b46fb7908c75091919cb9b9196]
class AwsCloudClientImpl--><g id="elem_AwsCloudClientImpl"><rect codeLine="13" fill="#F1F1F1" height="292.4531" id="AwsCloudClientImpl" rx="2.5" ry="2.5" style="stroke:#181818;stroke-width:0.5;" width="601" x="137.5" y="621"/><ellipse cx="366.25" cy="637" fill="#ADD1B2" rx="11" ry="11" style="stroke:#181818;stroke-width:1.0;"/><path d="M369.2188,642.6406 Q368.6406,642.9375 368,643.0781 Q367.3594,643.2344 366.6563,643.2344 Q364.1563,643.2344 362.8281,641.5938 Q361.5156,639.9375 361.5156,636.8125 Q361.5156,633.6875 362.8281,632.0313 Q364.1563,630.375 366.6563,630.375 Q367.3594,630.375 368,630.5313 Q368.6563,630.6875 369.2188,630.9844 L369.2188,633.7031 Q368.5938,633.125 368,632.8594 Q367.4063,632.5781 366.7813,632.5781 Q365.4375,632.5781 364.75,633.6563 Q364.0625,634.7188 364.0625,636.8125 Q364.0625,638.9063 364.75,639.9844 Q365.4375,641.0469 366.7813,641.0469 Q367.4063,641.0469 368,640.7813 Q368.5938,640.5 369.2188,639.9219 L369.2188,642.6406 Z " fill="#000000"/><text fill="#000000" font-family="sans-serif" font-size="14" lengthAdjust="spacing" textLength="135" x="386.75" y="641.8467">AwsCloudClientImpl</text><line style="stroke:#181818;stroke-width:0.5;" x1="138.5" x2="737.5" y1="653" y2="653"/><rect fill="none" height="6" style="stroke:#C82930;stroke-width:1.0;" width="6" x="145.5" y="661"/><text fill="#000000" font-family="sans-serif" font-size="14" lengthAdjust="spacing" textLength="153" x="157.5" y="669.9951">cloudResource: string</text><rect fill="none" height="6" style="stroke:#C82930;stroke-width:1.0;" width="6" x="145.5" y="677.2969"/><text fill="#000000" font-family="sans-serif" font-size="14" lengthAdjust="spacing" textLength="116" x="157.5" y="686.292">accountId: string</text><rect fill="none" height="6" style="stroke:#C82930;stroke-width:1.0;" width="6" x="145.5" y="693.5938"/><text fill="#000000" font-family="sans-serif" font-size="14" lengthAdjust="spacing" textLength="100" x="157.5" y="702.5889">logPath: string</text><ellipse cx="148.5" cy="712.8906" fill="none" rx="3" ry="3" style="stroke:#038048;stroke-width:1.0;"/><text fill="#000000" font-family="sans-serif" font-size="14" lengthAdjust="spacing" textLength="144" x="157.5" y="718.8857">connection: aws.ec2</text><ellipse cx="148.5" cy="729.1875" fill="none" rx="3" ry="3" style="stroke:#038048;stroke-width:1.0;"/><text fill="#000000" font-family="sans-serif" font-size="14" lengthAdjust="spacing" text-decoration="underline" textLength="140" x="157.5" y="735.1826">resouceType: enum</text><line style="stroke:#181818;stroke-width:0.5;" x1="138.5" x2="737.5" y1="742.4844" y2="742.4844"/><ellipse cx="148.5" cy="753.4844" fill="#84BE84" rx="3" ry="3" style="stroke:#038048;stroke-width:1.0;"/><text fill="#000000" font-family="sans-serif" font-size="14" lengthAdjust="spacing" text-decoration="underline" textLength="575" x="157.5" y="759.4795">initialize(cloudRegion: string, logPath: string, accountId: string): AwsCloudClientImpl</text><ellipse cx="148.5" cy="769.7813" fill="#84BE84" rx="3" ry="3" style="stroke:#038048;stroke-width:1.0;"/><text fill="#000000" font-family="sans-serif" font-size="14" lengthAdjust="spacing" textLength="251" x="157.5" y="775.7764">regionExists(region: string): boolean</text><rect fill="#F24D5C" height="6" style="stroke:#C82930;stroke-width:1.0;" width="6" x="145.5" y="783.0781"/><text fill="#000000" font-family="sans-serif" font-size="14" lengthAdjust="spacing" textLength="226" x="157.5" y="792.0732">vpcExists(name: string): boolean</text><rect fill="#F24D5C" height="6" style="stroke:#C82930;stroke-width:1.0;" width="6" x="145.5" y="799.375"/><text fill="#000000" font-family="sans-serif" font-size="14" lengthAdjust="spacing" textLength="261" x="157.5" y="808.3701">instanceExists(name: string): boolean</text><rect fill="#F24D5C" height="6" style="stroke:#C82930;stroke-width:1.0;" width="6" x="145.5" y="815.6719"/><text fill="#000000" font-family="sans-serif" font-size="14" lengthAdjust="spacing" textLength="244" x="157.5" y="824.667">imageExists(name: string): boolean</text><rect fill="#F24D5C" height="6" style="stroke:#C82930;stroke-width:1.0;" width="6" x="145.5" y="831.9688"/><text fill="#000000" font-family="sans-serif" font-size="14" lengthAdjust="spacing" textLength="251" x="157.5" y="840.9639">keypairExists(name: string): boolean</text><rect fill="#F24D5C" height="6" style="stroke:#C82930;stroke-width:1.0;" width="6" x="145.5" y="848.2656"/><text fill="#000000" font-family="sans-serif" font-size="14" lengthAdjust="spacing" textLength="252" x="157.5" y="857.2607">budgetExists(name: string): boolean</text><rect fill="#F24D5C" height="6" style="stroke:#C82930;stroke-width:1.0;" width="6" x="145.5" y="864.5625"/><text fill="#000000" font-family="sans-serif" font-size="14" lengthAdjust="spacing" textLength="251" x="157.5" y="873.5576">subnetExists(name: string): boolean</text><rect fill="#F24D5C" height="6" style="stroke:#C82930;stroke-width:1.0;" width="6" x="145.5" y="880.8594"/><text fill="#000000" font-family="sans-serif" font-size="14" lengthAdjust="spacing" textLength="315" x="157.5" y="889.8545">internetGatewayExists(name: string): boolean</text><rect fill="#F24D5C" height="6" style="stroke:#C82930;stroke-width:1.0;" width="6" x="145.5" y="897.1563"/><text fill="#000000" font-family="sans-serif" font-size="14" lengthAdjust="spacing" textLength="267" x="157.5" y="906.1514">snapshotExists(name: string): boolean</text></g><!--MD5=[248f897e4bb16c2722904b15df30346f]
class Logger--><g id="elem_Logger"><rect codeLine="32" fill="#F1F1F1" height="129.4844" id="Logger" rx="2.5" ry="2.5" style="stroke:#181818;stroke-width:0.5;" width="380" x="22" y="431"/><ellipse cx="183.75" cy="447" fill="#ADD1B2" rx="11" ry="11" style="stroke:#181818;stroke-width:1.0;"/><path d="M186.7188,452.6406 Q186.1406,452.9375 185.5,453.0781 Q184.8594,453.2344 184.1563,453.2344 Q181.6563,453.2344 180.3281,451.5938 Q179.0156,449.9375 179.0156,446.8125 Q179.0156,443.6875 180.3281,442.0313 Q181.6563,440.375 184.1563,440.375 Q184.8594,440.375 185.5,440.5313 Q186.1563,440.6875 186.7188,440.9844 L186.7188,443.7031 Q186.0938,443.125 185.5,442.8594 Q184.9063,442.5781 184.2813,442.5781 Q182.9375,442.5781 182.25,443.6563 Q181.5625,444.7188 181.5625,446.8125 Q181.5625,448.9063 182.25,449.9844 Q182.9375,451.0469 184.2813,451.0469 Q184.9063,451.0469 185.5,450.7813 Q186.0938,450.5 186.7188,449.9219 L186.7188,452.6406 Z " fill="#000000"/><text fill="#000000" font-family="sans-serif" font-size="14" lengthAdjust="spacing" textLength="48" x="204.25" y="451.8467">Logger</text><line style="stroke:#181818;stroke-width:0.5;" x1="23" x2="401" y1="463" y2="463"/><ellipse cx="33" cy="474" fill="none" rx="3" ry="3" style="stroke:#038048;stroke-width:1.0;"/><text fill="#000000" font-family="sans-serif" font-size="14" lengthAdjust="spacing" text-decoration="underline" textLength="147" x="42" y="479.9951">messageType: enum</text><line style="stroke:#181818;stroke-width:0.5;" x1="23" x2="401" y1="487.2969" y2="487.2969"/><rect fill="#F24D5C" height="6" style="stroke:#C82930;stroke-width:1.0;" width="6" x="30" y="495.2969"/><text fill="#000000" font-family="sans-serif" font-size="14" lengthAdjust="spacing" text-decoration="underline" textLength="214" x="42" y="504.292">setupLogger(path: string): void</text><rect fill="#F24D5C" height="6" style="stroke:#C82930;stroke-width:1.0;" width="6" x="30" y="511.5938"/><text fill="#000000" font-family="sans-serif" font-size="14" lengthAdjust="spacing" text-decoration="underline" textLength="354" x="42" y="520.5889">log(message: type: enum, string, path: string): void</text><ellipse cx="33" cy="530.8906" fill="#84BE84" rx="3" ry="3" style="stroke:#038048;stroke-width:1.0;"/><text fill="#000000" font-family="sans-serif" font-size="14" lengthAdjust="spacing" text-decoration="underline" textLength="271" x="42" y="536.8857">info(message: string, path: string): void</text><ellipse cx="33" cy="547.1875" fill="#84BE84" rx="3" ry="3" style="stroke:#038048;stroke-width:1.0;"/><text fill="#000000" font-family="sans-serif" font-size="14" lengthAdjust="spacing" text-decoration="underline" textLength="279" x="42" y="553.1826">error(message: string, path: string): void</text></g><!--MD5=[b8cfd8c4119a3b0a7a46bfc5fc780f85]
class Error--><g id="elem_Error"><rect codeLine="41" fill="#F1F1F1" height="48" id="Error" rx="2.5" ry="2.5" style="stroke:#181818;stroke-width:0.5;" width="65" x="330.5" y="41"/><ellipse cx="345.5" cy="57" fill="#ADD1B2" rx="11" ry="11" style="stroke:#181818;stroke-width:1.0;"/><path d="M348.4688,62.6406 Q347.8906,62.9375 347.25,63.0781 Q346.6094,63.2344 345.9063,63.2344 Q343.4063,63.2344 342.0781,61.5938 Q340.7656,59.9375 340.7656,56.8125 Q340.7656,53.6875 342.0781,52.0313 Q343.4063,50.375 345.9063,50.375 Q346.6094,50.375 347.25,50.5313 Q347.9063,50.6875 348.4688,50.9844 L348.4688,53.7031 Q347.8438,53.125 347.25,52.8594 Q346.6563,52.5781 346.0313,52.5781 Q344.6875,52.5781 344,53.6563 Q343.3125,54.7188 343.3125,56.8125 Q343.3125,58.9063 344,59.9844 Q344.6875,61.0469 346.0313,61.0469 Q346.6563,61.0469 347.25,60.7813 Q347.8438,60.5 348.4688,59.9219 L348.4688,62.6406 Z " fill="#000000"/><text fill="#000000" font-family="sans-serif" font-size="14" lengthAdjust="spacing" textLength="33" x="359.5" y="61.8467">Error</text><line style="stroke:#181818;stroke-width:0.5;" x1="331.5" x2="394.5" y1="73" y2="73"/><line style="stroke:#181818;stroke-width:0.5;" x1="331.5" x2="394.5" y1="81" y2="81"/></g><!--MD5=[c04a1eddf27bec25df904ddb4ea7e51c]
class FileException--><g id="elem_FileException"><rect codeLine="42" fill="#F1F1F1" height="48" id="FileException" rx="2.5" ry="2.5" style="stroke:#181818;stroke-width:0.5;" width="123" x="223.5" y="150"/><ellipse cx="238.5" cy="166" fill="#ADD1B2" rx="11" ry="11" style="stroke:#181818;stroke-width:1.0;"/><path d="M241.4688,171.6406 Q240.8906,171.9375 240.25,172.0781 Q239.6094,172.2344 238.9063,172.2344 Q236.4063,172.2344 235.0781,170.5938 Q233.7656,168.9375 233.7656,165.8125 Q233.7656,162.6875 235.0781,161.0313 Q236.4063,159.375 238.9063,159.375 Q239.6094,159.375 240.25,159.5313 Q240.9063,159.6875 241.4688,159.9844 L241.4688,162.7031 Q240.8438,162.125 240.25,161.8594 Q239.6563,161.5781 239.0313,161.5781 Q237.6875,161.5781 237,162.6563 Q236.3125,163.7188 236.3125,165.8125 Q236.3125,167.9063 237,168.9844 Q237.6875,170.0469 239.0313,170.0469 Q239.6563,170.0469 240.25,169.7813 Q240.8438,169.5 241.4688,168.9219 L241.4688,171.6406 Z " fill="#000000"/><text fill="#000000" font-family="sans-serif" font-size="14" lengthAdjust="spacing" textLength="91" x="252.5" y="170.8467">FileException</text><line style="stroke:#181818;stroke-width:0.5;" x1="224.5" x2="345.5" y1="182" y2="182"/><line style="stroke:#181818;stroke-width:0.5;" x1="224.5" x2="345.5" y1="190" y2="190"/></g><!--MD5=[850736a45357c4e7fc1918ba69d01892]
class FileCreationPermissionDeniedException--><g id="elem_FileCreationPermissionDeniedException"><rect codeLine="43" fill="#F1F1F1" height="48" id="FileCreationPermissionDeniedException" rx="2.5" ry="2.5" style="stroke:#181818;stroke-width:0.5;" width="307" x="85.5" y="306"/><ellipse cx="100.5" cy="322" fill="#ADD1B2" rx="11" ry="11" style="stroke:#181818;stroke-width:1.0;"/><path d="M103.4688,327.6406 Q102.8906,327.9375 102.25,328.0781 Q101.6094,328.2344 100.9063,328.2344 Q98.4063,328.2344 97.0781,326.5938 Q95.7656,324.9375 95.7656,321.8125 Q95.7656,318.6875 97.0781,317.0313 Q98.4063,315.375 100.9063,315.375 Q101.6094,315.375 102.25,315.5313 Q102.9063,315.6875 103.4688,315.9844 L103.4688,318.7031 Q102.8438,318.125 102.25,317.8594 Q101.6563,317.5781 101.0313,317.5781 Q99.6875,317.5781 99,318.6563 Q98.3125,319.7188 98.3125,321.8125 Q98.3125,323.9063 99,324.9844 Q99.6875,326.0469 101.0313,326.0469 Q101.6563,326.0469 102.25,325.7813 Q102.8438,325.5 103.4688,324.9219 L103.4688,327.6406 Z " fill="#000000"/><text fill="#000000" font-family="sans-serif" font-size="14" lengthAdjust="spacing" textLength="275" x="114.5" y="326.8467">FileCreationPermissionDeniedException</text><line style="stroke:#181818;stroke-width:0.5;" x1="86.5" x2="391.5" y1="338" y2="338"/><line style="stroke:#181818;stroke-width:0.5;" x1="86.5" x2="391.5" y1="346" y2="346"/></g><!--MD5=[e501adec32043ff91bfa61d466b69e6a]
class RegionNotFoundException--><g id="elem_RegionNotFoundException"><rect codeLine="44" fill="#F1F1F1" height="48" id="RegionNotFoundException" rx="2.5" ry="2.5" style="stroke:#181818;stroke-width:0.5;" width="217" x="314.5" y="228"/><ellipse cx="329.5" cy="244" fill="#ADD1B2" rx="11" ry="11" style="stroke:#181818;stroke-width:1.0;"/><path d="M332.4688,249.6406 Q331.8906,249.9375 331.25,250.0781 Q330.6094,250.2344 329.9063,250.2344 Q327.4063,250.2344 326.0781,248.5938 Q324.7656,246.9375 324.7656,243.8125 Q324.7656,240.6875 326.0781,239.0313 Q327.4063,237.375 329.9063,237.375 Q330.6094,237.375 331.25,237.5313 Q331.9063,237.6875 332.4688,237.9844 L332.4688,240.7031 Q331.8438,240.125 331.25,239.8594 Q330.6563,239.5781 330.0313,239.5781 Q328.6875,239.5781 328,240.6563 Q327.3125,241.7188 327.3125,243.8125 Q327.3125,245.9063 328,246.9844 Q328.6875,248.0469 330.0313,248.0469 Q330.6563,248.0469 331.25,247.7813 Q331.8438,247.5 332.4688,246.9219 L332.4688,249.6406 Z " fill="#000000"/><text fill="#000000" font-family="sans-serif" font-size="14" lengthAdjust="spacing" textLength="185" x="343.5" y="248.8467">RegionNotFoundException</text><line style="stroke:#181818;stroke-width:0.5;" x1="315.5" x2="530.5" y1="260" y2="260"/><line style="stroke:#181818;stroke-width:0.5;" x1="315.5" x2="530.5" y1="268" y2="268"/></g><!--MD5=[a07a4e4de512983a15a594921374d81c]
reverse link Error to RegionNotFoundException--><g id="link_Error_RegionNotFoundException"><path codeLine="47" d="M376.65,108.09 C388.7,145.25 405.82,198.02 415.52,227.94 " fill="none" id="Error-backto-RegionNotFoundException" style="stroke:#181818;stroke-width:1.0;"/><polygon fill="none" points="369.99,110.24,370.48,89.06,383.31,105.92,369.99,110.24" style="stroke:#181818;stroke-width:1.0;"/></g><!--MD5=[268b3fda52eecf693a94b1a89d8808c6]
reverse link Error to FileException--><g id="link_Error_FileException"><path codeLine="48" d="M334.08,105.67 C323.24,120.54 311.29,136.94 301.89,149.83 " fill="none" id="Error-backto-FileException" style="stroke:#181818;stroke-width:1.0;"/><polygon fill="none" points="328.64,101.26,346.08,89.22,339.95,109.5,328.64,101.26" style="stroke:#181818;stroke-width:1.0;"/></g><!--MD5=[ab955862772c7f63d619ee4e039012cc]
reverse link FileException to FileCreationPermissionDeniedException--><g id="link_FileException_FileCreationPermissionDeniedException"><path codeLine="49" d="M272.3,217.53 C263.78,246.03 252.9,282.48 245.93,305.79 " fill="none" id="FileException-backto-FileCreationPermissionDeniedException" style="stroke:#181818;stroke-width:1.0;"/><polygon fill="none" points="265.68,215.22,278.11,198.06,279.1,219.22,265.68,215.22" style="stroke:#181818;stroke-width:1.0;"/></g><!--MD5=[dbfeddb9d95a7192b17d902f308005ff]
reverse link RegionNotFoundException to AwsCloudClientImpl--><g id="link_RegionNotFoundException_AwsCloudClientImpl"><path codeLine="51" d="M423.82,281.16 C425.68,344.6 430.29,502.39 433.76,620.85 " fill="none" id="RegionNotFoundException-backto-AwsCloudClientImpl" style="stroke:#181818;stroke-width:1.0;stroke-dasharray:7.0,7.0;"/><polygon fill="#181818" points="423.67,276.04,419.9287,285.1506,423.8128,281.038,427.9254,284.9221,423.67,276.04" style="stroke:#181818;stroke-width:1.0;"/><text fill="#000000" font-family="sans-serif" font-size="13" lengthAdjust="spacing" textLength="42" x="428" y="397.0669">throws</text></g><!--MD5=[05e1efa6fdac356d2d8c378ac779640f]
reverse link FileCreationPermissionDeniedException to Logger--><g id="link_FileCreationPermissionDeniedException_Logger"><path codeLine="52" d="M234.34,359.19 C231.08,378.94 226.59,406.15 222.49,430.98 " fill="none" id="FileCreationPermissionDeniedException-backto-Logger" style="stroke:#181818;stroke-width:1.0;stroke-dasharray:7.0,7.0;"/><polygon fill="#181818" points="235.19,354.08,229.7764,362.3076,234.375,359.0131,237.6694,363.6117,235.19,354.08" style="stroke:#181818;stroke-width:1.0;"/><text fill="#000000" font-family="sans-serif" font-size="13" lengthAdjust="spacing" textLength="42" x="230" y="397.0669">throws</text></g><!--MD5=[5d5527c344658f30b510da06458ece2e]
reverse link ICloudClient to AwsCloudClientImpl--><g id="link_ICloudClient_AwsCloudClientImpl"><path codeLine="54" d="M596.97,567.66 C583.69,584.23 569.07,602.47 554.25,620.96 " fill="none" id="ICloudClient-backto-AwsCloudClientImpl" style="stroke:#181818;stroke-width:1.0;stroke-dasharray:7.0,7.0;"/><polygon fill="none" points="591.54,563.24,609.51,552.01,602.46,572,591.54,563.24" style="stroke:#181818;stroke-width:1.0;"/></g><!--MD5=[22ca73c19c7190df5500cbf6d1361bc1]
reverse link Logger to AwsCloudClientImpl--><g id="link_Logger_AwsCloudClientImpl"><path codeLine="55" d="M268.58,563.97 C283.28,581.5 299.7,601.09 316.38,620.97 " fill="none" id="Logger-backto-AwsCloudClientImpl" style="stroke:#181818;stroke-width:1.0;stroke-dasharray:7.0,7.0;"/><polygon fill="#181818" points="265.27,560.03,267.9761,569.4998,268.4779,563.8653,274.1125,564.3671,265.27,560.03" style="stroke:#181818;stroke-width:1.0;"/></g><!--MD5=[06062c9e1e1cd6feef13f2330d9d544e]
@startuml
'https://plantuml.com/class-diagram

package "Core"{

    'classes and interfaces
    interface ICloudClient{
        +constructor(cloudRegion: string, logPath: string)
        +readParam(path: string, target: object): object
        +log(message: string, type: enum): void
        +exists(type: enum, name: string): boolean
    }

    class AwsCloudClientImpl {
        -cloudResource: string
        -accountId: string
        -logPath: string
        +connection: aws.ec2
        {static} +resouceType: enum

        {static} +initialize(cloudRegion: string, logPath: string, accountId: string): AwsCloudClientImpl
        +regionExists(region: string): boolean
        -vpcExists(name: string): boolean
        -instanceExists(name: string): boolean
        -imageExists(name: string): boolean
        -keypairExists(name: string): boolean
        -budgetExists(name: string): boolean
        -subnetExists(name: string): boolean
        -internetGatewayExists(name: string): boolean
        -snapshotExists(name: string): boolean
    }

    class Logger {
        {static} +messageType: enum

        {static} -setupLogger(path: string): void
        {static} -log(message: type: enum, string, path: string): void
        {static} +info(message: string, path: string): void
        {static} +error(message: string, path: string): void
    }

    class Error
    class FileException
    class FileCreationPermissionDeniedException
    class RegionNotFoundException

    'relations
    Error <|- - RegionNotFoundException
    Error <|- - FileException
    FileException <|- - FileCreationPermissionDeniedException

    RegionNotFoundException <.. AwsCloudClientImpl: throws
    FileCreationPermissionDeniedException <.. Logger: throws

    ICloudClient <|.. AwsCloudClientImpl
    Logger <.. AwsCloudClientImpl
}

@enduml

@startuml

package "Core"{

    interface ICloudClient{
        +constructor(cloudRegion: string, logPath: string)
        +readParam(path: string, target: object): object
        +log(message: string, type: enum): void
        +exists(type: enum, name: string): boolean
    }

    class AwsCloudClientImpl {
        -cloudResource: string
        -accountId: string
        -logPath: string
        +connection: aws.ec2
        {static} +resouceType: enum

        {static} +initialize(cloudRegion: string, logPath: string, accountId: string): AwsCloudClientImpl
        +regionExists(region: string): boolean
        -vpcExists(name: string): boolean
        -instanceExists(name: string): boolean
        -imageExists(name: string): boolean
        -keypairExists(name: string): boolean
        -budgetExists(name: string): boolean
        -subnetExists(name: string): boolean
        -internetGatewayExists(name: string): boolean
        -snapshotExists(name: string): boolean
    }

    class Logger {
        {static} +messageType: enum

        {static} -setupLogger(path: string): void
        {static} -log(message: type: enum, string, path: string): void
        {static} +info(message: string, path: string): void
        {static} +error(message: string, path: string): void
    }

    class Error
    class FileException
    class FileCreationPermissionDeniedException
    class RegionNotFoundException

    Error <|- - RegionNotFoundException
    Error <|- - FileException
    FileException <|- - FileCreationPermissionDeniedException

    RegionNotFoundException <.. AwsCloudClientImpl: throws
    FileCreationPermissionDeniedException <.. Logger: throws

    ICloudClient <|.. AwsCloudClientImpl
    Logger <.. AwsCloudClientImpl
}

@enduml

PlantUML version 1.2022.5(Sat Apr 30 12:55:52 CEST 2022)
(GPL source distribution)
Java Runtime: OpenJDK Runtime Environment
JVM: OpenJDK 64-Bit Server VM
Default Encoding: UTF-8
Language: en
Country: US
--></g></svg>