<?xml version="1.0" encoding="UTF-8" standalone="no"?><svg xmlns="http://www.w3.org/2000/svg" xmlns:xlink="http://www.w3.org/1999/xlink" contentStyleType="text/css" height="530px" preserveAspectRatio="none" style="width:997px;height:530px;background:#FFFFFF;" version="1.1" viewBox="0 0 997 530" width="997px" zoomAndPan="magnify"><defs/><g><!--MD5=[2c2e2644034c00788261e03c85b06837]
cluster Core--><g id="cluster_Core"><path d="M8.5,6 L47.5,6 A3.75,3.75 0 0 1 50,8.5 L57,28.2969 L987.5,28.2969 A2.5,2.5 0 0 1 990,30.7969 L990,520.5 A2.5,2.5 0 0 1 987.5,523 L8.5,523 A2.5,2.5 0 0 1 6,520.5 L6,8.5 A2.5,2.5 0 0 1 8.5,6 " style="stroke:#000000;stroke-width:1.5;fill:none;"/><line style="stroke:#000000;stroke-width:1.5;fill:none;" x1="6" x2="57" y1="28.2969" y2="28.2969"/><text fill="#000000" font-family="sans-serif" font-size="14" font-weight="bold" lengthAdjust="spacing" textLength="38" x="10" y="20.9951">Core</text></g><!--MD5=[982b636854f4c7b40bdfc3be7b88777d]
class ICloudClient--><g id="elem_ICloudClient"><rect codeLine="6" fill="#F1F1F1" height="113.1875" id="ICloudClient" rx="2.5" ry="2.5" style="stroke:#181818;stroke-width:0.5;" width="359" x="362.5" y="41"/><ellipse cx="496.25" cy="57" fill="#B4A7E5" rx="11" ry="11" style="stroke:#181818;stroke-width:1.0;"/><path d="M492.1719,52.7656 L492.1719,50.6094 L499.5625,50.6094 L499.5625,52.7656 L497.0938,52.7656 L497.0938,60.8438 L499.5625,60.8438 L499.5625,63 L492.1719,63 L492.1719,60.8438 L494.6406,60.8438 L494.6406,52.7656 L492.1719,52.7656 Z " fill="#000000"/><text fill="#000000" font-family="sans-serif" font-size="14" font-style="italic" lengthAdjust="spacing" textLength="83" x="516.75" y="61.8467">ICloudClient</text><line style="stroke:#181818;stroke-width:0.5;" x1="363.5" x2="720.5" y1="73" y2="73"/><line style="stroke:#181818;stroke-width:0.5;" x1="363.5" x2="720.5" y1="81" y2="81"/><ellipse cx="373.5" cy="92" fill="#84BE84" rx="3" ry="3" style="stroke:#038048;stroke-width:1.0;"/><text fill="#000000" font-family="sans-serif" font-size="14" lengthAdjust="spacing" textLength="333" x="382.5" y="97.9951">constructor(cloudRegion: string, logPath: string)</text><ellipse cx="373.5" cy="108.2969" fill="#84BE84" rx="3" ry="3" style="stroke:#038048;stroke-width:1.0;"/><text fill="#000000" font-family="sans-serif" font-size="14" lengthAdjust="spacing" textLength="316" x="382.5" y="114.292">readParam(path: string, target: object): object</text><ellipse cx="373.5" cy="124.5938" fill="#84BE84" rx="3" ry="3" style="stroke:#038048;stroke-width:1.0;"/><text fill="#000000" font-family="sans-serif" font-size="14" lengthAdjust="spacing" textLength="267" x="382.5" y="130.5889">log(message: string, type: enum): void</text><ellipse cx="373.5" cy="140.8906" fill="#84BE84" rx="3" ry="3" style="stroke:#038048;stroke-width:1.0;"/><text fill="#000000" font-family="sans-serif" font-size="14" lengthAdjust="spacing" textLength="289" x="382.5" y="146.8857">exists(type: enum, name: string): boolean</text></g><!--MD5=[8cec77b46fb7908c75091919cb9b9196]
class AwsCloudClientImpl--><g id="elem_AwsCloudClientImpl"><rect codeLine="13" fill="#F1F1F1" height="276.1563" id="AwsCloudClientImpl" rx="2.5" ry="2.5" style="stroke:#181818;stroke-width:0.5;" width="341" x="371.5" y="231"/><ellipse cx="470.25" cy="247" fill="#ADD1B2" rx="11" ry="11" style="stroke:#181818;stroke-width:1.0;"/><path d="M473.2188,252.6406 Q472.6406,252.9375 472,253.0781 Q471.3594,253.2344 470.6563,253.2344 Q468.1563,253.2344 466.8281,251.5938 Q465.5156,249.9375 465.5156,246.8125 Q465.5156,243.6875 466.8281,242.0313 Q468.1563,240.375 470.6563,240.375 Q471.3594,240.375 472,240.5313 Q472.6563,240.6875 473.2188,240.9844 L473.2188,243.7031 Q472.5938,243.125 472,242.8594 Q471.4063,242.5781 470.7813,242.5781 Q469.4375,242.5781 468.75,243.6563 Q468.0625,244.7188 468.0625,246.8125 Q468.0625,248.9063 468.75,249.9844 Q469.4375,251.0469 470.7813,251.0469 Q471.4063,251.0469 472,250.7813 Q472.5938,250.5 473.2188,249.9219 L473.2188,252.6406 Z " fill="#000000"/><text fill="#000000" font-family="sans-serif" font-size="14" lengthAdjust="spacing" textLength="135" x="490.75" y="251.8467">AwsCloudClientImpl</text><line style="stroke:#181818;stroke-width:0.5;" x1="372.5" x2="711.5" y1="263" y2="263"/><rect fill="none" height="6" style="stroke:#C82930;stroke-width:1.0;" width="6" x="379.5" y="271"/><text fill="#000000" font-family="sans-serif" font-size="14" lengthAdjust="spacing" textLength="153" x="391.5" y="279.9951">cloudResource: string</text><rect fill="none" height="6" style="stroke:#C82930;stroke-width:1.0;" width="6" x="379.5" y="287.2969"/><text fill="#000000" font-family="sans-serif" font-size="14" lengthAdjust="spacing" textLength="116" x="391.5" y="296.292">accountId: string</text><rect fill="none" height="6" style="stroke:#C82930;stroke-width:1.0;" width="6" x="379.5" y="303.5938"/><text fill="#000000" font-family="sans-serif" font-size="14" lengthAdjust="spacing" textLength="100" x="391.5" y="312.5889">logPath: string</text><ellipse cx="382.5" cy="322.8906" fill="none" rx="3" ry="3" style="stroke:#038048;stroke-width:1.0;"/><text fill="#000000" font-family="sans-serif" font-size="14" lengthAdjust="spacing" textLength="144" x="391.5" y="328.8857">connection: aws.ec2</text><ellipse cx="382.5" cy="339.1875" fill="none" rx="3" ry="3" style="stroke:#038048;stroke-width:1.0;"/><text fill="#000000" font-family="sans-serif" font-size="14" lengthAdjust="spacing" text-decoration="underline" textLength="140" x="391.5" y="345.1826">resouceType: enum</text><line style="stroke:#181818;stroke-width:0.5;" x1="372.5" x2="711.5" y1="352.4844" y2="352.4844"/><ellipse cx="382.5" cy="363.4844" fill="#84BE84" rx="3" ry="3" style="stroke:#038048;stroke-width:1.0;"/><text fill="#000000" font-family="sans-serif" font-size="14" lengthAdjust="spacing" textLength="251" x="391.5" y="369.4795">regionExists(region: string): boolean</text><rect fill="#F24D5C" height="6" style="stroke:#C82930;stroke-width:1.0;" width="6" x="379.5" y="376.7813"/><text fill="#000000" font-family="sans-serif" font-size="14" lengthAdjust="spacing" textLength="226" x="391.5" y="385.7764">vpcExists(name: string): boolean</text><rect fill="#F24D5C" height="6" style="stroke:#C82930;stroke-width:1.0;" width="6" x="379.5" y="393.0781"/><text fill="#000000" font-family="sans-serif" font-size="14" lengthAdjust="spacing" textLength="261" x="391.5" y="402.0732">instanceExists(name: string): boolean</text><rect fill="#F24D5C" height="6" style="stroke:#C82930;stroke-width:1.0;" width="6" x="379.5" y="409.375"/><text fill="#000000" font-family="sans-serif" font-size="14" lengthAdjust="spacing" textLength="244" x="391.5" y="418.3701">imageExists(name: string): boolean</text><rect fill="#F24D5C" height="6" style="stroke:#C82930;stroke-width:1.0;" width="6" x="379.5" y="425.6719"/><text fill="#000000" font-family="sans-serif" font-size="14" lengthAdjust="spacing" textLength="251" x="391.5" y="434.667">keypairExists(name: string): boolean</text><rect fill="#F24D5C" height="6" style="stroke:#C82930;stroke-width:1.0;" width="6" x="379.5" y="441.9688"/><text fill="#000000" font-family="sans-serif" font-size="14" lengthAdjust="spacing" textLength="252" x="391.5" y="450.9639">budgetExists(name: string): boolean</text><rect fill="#F24D5C" height="6" style="stroke:#C82930;stroke-width:1.0;" width="6" x="379.5" y="458.2656"/><text fill="#000000" font-family="sans-serif" font-size="14" lengthAdjust="spacing" textLength="251" x="391.5" y="467.2607">subnetExists(name: string): boolean</text><rect fill="#F24D5C" height="6" style="stroke:#C82930;stroke-width:1.0;" width="6" x="379.5" y="474.5625"/><text fill="#000000" font-family="sans-serif" font-size="14" lengthAdjust="spacing" textLength="315" x="391.5" y="483.5576">internetGatewayExists(name: string): boolean</text><rect fill="#F24D5C" height="6" style="stroke:#C82930;stroke-width:1.0;" width="6" x="379.5" y="490.8594"/><text fill="#000000" font-family="sans-serif" font-size="14" lengthAdjust="spacing" textLength="267" x="391.5" y="499.8545">snapshotExists(name: string): boolean</text></g><!--MD5=[b8cfd8c4119a3b0a7a46bfc5fc780f85]
class Error--><g id="elem_Error"><rect codeLine="31" fill="#F1F1F1" height="48" id="Error" rx="2.5" ry="2.5" style="stroke:#181818;stroke-width:0.5;" width="65" x="832.5" y="345"/><ellipse cx="847.5" cy="361" fill="#ADD1B2" rx="11" ry="11" style="stroke:#181818;stroke-width:1.0;"/><path d="M850.4688,366.6406 Q849.8906,366.9375 849.25,367.0781 Q848.6094,367.2344 847.9063,367.2344 Q845.4063,367.2344 844.0781,365.5938 Q842.7656,363.9375 842.7656,360.8125 Q842.7656,357.6875 844.0781,356.0313 Q845.4063,354.375 847.9063,354.375 Q848.6094,354.375 849.25,354.5313 Q849.9063,354.6875 850.4688,354.9844 L850.4688,357.7031 Q849.8438,357.125 849.25,356.8594 Q848.6563,356.5781 848.0313,356.5781 Q846.6875,356.5781 846,357.6563 Q845.3125,358.7188 845.3125,360.8125 Q845.3125,362.9063 846,363.9844 Q846.6875,365.0469 848.0313,365.0469 Q848.6563,365.0469 849.25,364.7813 Q849.8438,364.5 850.4688,363.9219 L850.4688,366.6406 Z " fill="#000000"/><text fill="#000000" font-family="sans-serif" font-size="14" lengthAdjust="spacing" textLength="33" x="861.5" y="365.8467">Error</text><line style="stroke:#181818;stroke-width:0.5;" x1="833.5" x2="896.5" y1="377" y2="377"/><line style="stroke:#181818;stroke-width:0.5;" x1="833.5" x2="896.5" y1="385" y2="385"/></g><!--MD5=[e501adec32043ff91bfa61d466b69e6a]
class RegionNotFoundException--><g id="elem_RegionNotFoundException"><rect codeLine="32" fill="#F1F1F1" height="48" id="RegionNotFoundException" rx="2.5" ry="2.5" style="stroke:#181818;stroke-width:0.5;" width="217" x="756.5" y="73.5"/><ellipse cx="771.5" cy="89.5" fill="#ADD1B2" rx="11" ry="11" style="stroke:#181818;stroke-width:1.0;"/><path d="M774.4688,95.1406 Q773.8906,95.4375 773.25,95.5781 Q772.6094,95.7344 771.9063,95.7344 Q769.4063,95.7344 768.0781,94.0938 Q766.7656,92.4375 766.7656,89.3125 Q766.7656,86.1875 768.0781,84.5313 Q769.4063,82.875 771.9063,82.875 Q772.6094,82.875 773.25,83.0313 Q773.9063,83.1875 774.4688,83.4844 L774.4688,86.2031 Q773.8438,85.625 773.25,85.3594 Q772.6563,85.0781 772.0313,85.0781 Q770.6875,85.0781 770,86.1563 Q769.3125,87.2188 769.3125,89.3125 Q769.3125,91.4063 770,92.4844 Q770.6875,93.5469 772.0313,93.5469 Q772.6563,93.5469 773.25,93.2813 Q773.8438,93 774.4688,92.4219 L774.4688,95.1406 Z " fill="#000000"/><text fill="#000000" font-family="sans-serif" font-size="14" lengthAdjust="spacing" textLength="185" x="785.5" y="94.3467">RegionNotFoundException</text><line style="stroke:#181818;stroke-width:0.5;" x1="757.5" x2="972.5" y1="105.5" y2="105.5"/><line style="stroke:#181818;stroke-width:0.5;" x1="757.5" x2="972.5" y1="113.5" y2="113.5"/></g><!--MD5=[248f897e4bb16c2722904b15df30346f]
class Logger--><g id="elem_Logger"><rect codeLine="34" fill="#F1F1F1" height="113.1875" id="Logger" rx="2.5" ry="2.5" style="stroke:#181818;stroke-width:0.5;" width="305" x="22.5" y="41"/><ellipse cx="146.75" cy="57" fill="#ADD1B2" rx="11" ry="11" style="stroke:#181818;stroke-width:1.0;"/><path d="M149.7188,62.6406 Q149.1406,62.9375 148.5,63.0781 Q147.8594,63.2344 147.1563,63.2344 Q144.6563,63.2344 143.3281,61.5938 Q142.0156,59.9375 142.0156,56.8125 Q142.0156,53.6875 143.3281,52.0313 Q144.6563,50.375 147.1563,50.375 Q147.8594,50.375 148.5,50.5313 Q149.1563,50.6875 149.7188,50.9844 L149.7188,53.7031 Q149.0938,53.125 148.5,52.8594 Q147.9063,52.5781 147.2813,52.5781 Q145.9375,52.5781 145.25,53.6563 Q144.5625,54.7188 144.5625,56.8125 Q144.5625,58.9063 145.25,59.9844 Q145.9375,61.0469 147.2813,61.0469 Q147.9063,61.0469 148.5,60.7813 Q149.0938,60.5 149.7188,59.9219 L149.7188,62.6406 Z " fill="#000000"/><text fill="#000000" font-family="sans-serif" font-size="14" lengthAdjust="spacing" textLength="48" x="167.25" y="61.8467">Logger</text><line style="stroke:#181818;stroke-width:0.5;" x1="23.5" x2="326.5" y1="73" y2="73"/><ellipse cx="33.5" cy="84" fill="none" rx="3" ry="3" style="stroke:#038048;stroke-width:1.0;"/><text fill="#000000" font-family="sans-serif" font-size="14" lengthAdjust="spacing" text-decoration="underline" textLength="147" x="42.5" y="89.9951">messageType: enum</text><line style="stroke:#181818;stroke-width:0.5;" x1="23.5" x2="326.5" y1="97.2969" y2="97.2969"/><rect fill="#F24D5C" height="6" style="stroke:#C82930;stroke-width:1.0;" width="6" x="30.5" y="105.2969"/><text fill="#000000" font-family="sans-serif" font-size="14" lengthAdjust="spacing" textLength="214" x="42.5" y="114.292">setupLogger(path: string): void</text><ellipse cx="33.5" cy="124.5938" fill="#84BE84" rx="3" ry="3" style="stroke:#038048;stroke-width:1.0;"/><text fill="#000000" font-family="sans-serif" font-size="14" lengthAdjust="spacing" textLength="271" x="42.5" y="130.5889">info(message: string, path: string): void</text><ellipse cx="33.5" cy="140.8906" fill="#84BE84" rx="3" ry="3" style="stroke:#038048;stroke-width:1.0;"/><text fill="#000000" font-family="sans-serif" font-size="14" lengthAdjust="spacing" textLength="279" x="42.5" y="146.8857">error(message: string, path: string): void</text></g><!--MD5=[5d5527c344658f30b510da06458ece2e]
reverse link ICloudClient to AwsCloudClientImpl--><g id="link_ICloudClient_AwsCloudClientImpl"><path codeLine="43" d="M542,174.27 C542,191.96 542,211.33 542,230.78 " fill="none" id="ICloudClient-backto-AwsCloudClientImpl" style="stroke:#181818;stroke-width:1.0;stroke-dasharray:7.0,7.0;"/><polygon fill="none" points="535,174.01,542,154.01,549,174.01,535,174.01" style="stroke:#181818;stroke-width:1.0;"/></g><!--MD5=[22ca73c19c7190df5500cbf6d1361bc1]
reverse link Logger to AwsCloudClientImpl--><g id="link_Logger_AwsCloudClientImpl"><path codeLine="44" d="M254.75,157.07 C289.13,182.31 330.74,212.86 371.49,242.79 " fill="none" id="Logger-backto-AwsCloudClientImpl" style="stroke:#181818;stroke-width:1.0;stroke-dasharray:7.0,7.0;"/><polygon fill="#181818" points="250.6,154.01,255.4882,162.5601,254.6307,156.9687,260.2221,156.1111,250.6,154.01" style="stroke:#181818;stroke-width:1.0;"/></g><!--MD5=[dbfeddb9d95a7192b17d902f308005ff]
reverse link RegionNotFoundException to AwsCloudClientImpl--><g id="link_RegionNotFoundException_AwsCloudClientImpl"><path codeLine="45" d="M833.2,125.03 C802.87,150.34 754.73,190.51 706.25,230.95 " fill="none" id="RegionNotFoundException-backto-AwsCloudClientImpl" style="stroke:#181818;stroke-width:1.0;stroke-dasharray:7.0,7.0;"/><polygon fill="#181818" points="837.18,121.71,827.7043,124.3953,833.3377,124.9095,832.8235,130.543,837.18,121.71" style="stroke:#181818;stroke-width:1.0;"/><text fill="#000000" font-family="sans-serif" font-size="13" lengthAdjust="spacing" textLength="42" x="761" y="197.0669">throws</text></g><!--MD5=[b421de5fd846d96441f227b11bddfe62]
reverse link RegionNotFoundException to Error--><g id="link_RegionNotFoundException_Error"><path codeLine="46" d="M865,142.18 C865,199.97 865,299.79 865,344.8 " fill="none" id="RegionNotFoundException-backto-Error" style="stroke:#181818;stroke-width:1.0;"/><polygon fill="none" points="858,141.94,865,121.94,872,141.94,858,141.94" style="stroke:#181818;stroke-width:1.0;"/></g><!--MD5=[013bd491c9aafae49cb94f4290eff8ac]
@startuml
'https://plantuml.com/class-diagram

package "Core"{

    'classes and interfaces
    interface ICloudClient{
        +constructor(cloudRegion: string, logPath: string)
        +readParam(path: string, target: object): object
        +log(message: string, type: enum): void
        +exists(type: enum, name: string): boolean
    }

    class AwsCloudClientImpl {
        -cloudResource: string
        -accountId: string
        -logPath: string
        +connection: aws.ec2
        {static} +resouceType: enum

        +regionExists(region: string): boolean
        -vpcExists(name: string): boolean
        -instanceExists(name: string): boolean
        -imageExists(name: string): boolean
        -keypairExists(name: string): boolean
        -budgetExists(name: string): boolean
        -subnetExists(name: string): boolean
        -internetGatewayExists(name: string): boolean
        -snapshotExists(name: string): boolean
    }

    class Error
    class RegionNotFoundException

    class Logger {
        {static} +messageType: enum

        -setupLogger(path: string): void
        +info(message: string, path: string): void
        +error(message: string, path: string): void
    }

    'relations
    ICloudClient <|.. AwsCloudClientImpl
    Logger <.. AwsCloudClientImpl
    RegionNotFoundException <.. AwsCloudClientImpl: throws
    RegionNotFoundException <|- - Error
}

@enduml

@startuml

package "Core"{

    interface ICloudClient{
        +constructor(cloudRegion: string, logPath: string)
        +readParam(path: string, target: object): object
        +log(message: string, type: enum): void
        +exists(type: enum, name: string): boolean
    }

    class AwsCloudClientImpl {
        -cloudResource: string
        -accountId: string
        -logPath: string
        +connection: aws.ec2
        {static} +resouceType: enum

        +regionExists(region: string): boolean
        -vpcExists(name: string): boolean
        -instanceExists(name: string): boolean
        -imageExists(name: string): boolean
        -keypairExists(name: string): boolean
        -budgetExists(name: string): boolean
        -subnetExists(name: string): boolean
        -internetGatewayExists(name: string): boolean
        -snapshotExists(name: string): boolean
    }

    class Error
    class RegionNotFoundException

    class Logger {
        {static} +messageType: enum

        -setupLogger(path: string): void
        +info(message: string, path: string): void
        +error(message: string, path: string): void
    }

    ICloudClient <|.. AwsCloudClientImpl
    Logger <.. AwsCloudClientImpl
    RegionNotFoundException <.. AwsCloudClientImpl: throws
    RegionNotFoundException <|- - Error
}

@enduml

PlantUML version 1.2022.5(Sat Apr 30 12:55:52 CEST 2022)
(GPL source distribution)
Java Runtime: OpenJDK Runtime Environment
JVM: OpenJDK 64-Bit Server VM
Default Encoding: UTF-8
Language: en
Country: US
--></g></svg>