<svg version="1.1" xmlns="http://www.w3.org/2000/svg" xmlns:xlink="http://www.w3.org/1999/xlink" width="865.7939453125" height="506"><defs/><g><g transform="translate(-6,-6) scale(1,1)"><path fill="#C0C0C0" stroke="none" d="M 460.161376953125 46 C 460.161376953125 33.2974496 470.458826553125 23 483.161376953125 23 C 495.863927353125 23 506.161376953125 33.2974496 506.161376953125 46 C 506.161376953125 58.7025504 495.863927353125 69 483.161376953125 69 C 470.458826553125 69 460.161376953125 58.7025504 460.161376953125 46 Z" opacity="0.2"/></g><g transform="translate(-6,-6) scale(1,1)"><path fill="#ffffff" stroke="none" d="M 453.161376953125 39 C 453.161376953125 26.2974496 463.458826553125 16 476.161376953125 16 C 488.863927353125 16 499.161376953125 26.2974496 499.161376953125 39 C 499.161376953125 51.7025504 488.863927353125 62 476.161376953125 62 C 463.458826553125 62 453.161376953125 51.7025504 453.161376953125 39 Z"/></g><g transform="translate(-6,-6) scale(1,1)"><path fill="none" stroke="#000000" d="M 453.161376953125 39 C 453.161376953125 26.2974496 463.458826553125 16 476.161376953125 16 C 488.863927353125 16 499.161376953125 26.2974496 499.161376953125 39 C 499.161376953125 51.7025504 488.863927353125 62 476.161376953125 62 C 463.458826553125 62 453.161376953125 51.7025504 453.161376953125 39 Z" stroke-miterlimit="10"/></g><g transform="translate(-6,-6) scale(1,1)"><path fill="none" stroke="#000000" d="M 298.06884765625 87 L 654.25390625 87" stroke-miterlimit="10"/></g><g transform="translate(-6,-6) scale(1,1)"><g><path fill="none" stroke="none"/><text fill="#000000" stroke="none" font-family="Arial" font-size="13px" font-style="normal" font-weight="bold" text-decoration="none" x="440.754150390625" y="81.5">ICloudClient</text></g></g><g transform="translate(-6,-6) scale(1,1)"><g><path fill="none" stroke="none"/><text fill="#000000" stroke="none" font-family="Arial" font-size="13px" font-style="normal" font-weight="normal" text-decoration="none" x="303.06884765625" y="104.5">+constructor(cloudRegion: string, logPath: string)</text></g></g><g transform="translate(-6,-6) scale(1,1)"><g><path fill="none" stroke="none"/><text fill="#000000" stroke="none" font-family="Arial" font-size="13px" font-style="normal" font-weight="normal" text-decoration="none" x="303.06884765625" y="119.5">+readParam(filePath: string, target: class): class</text></g></g><g transform="translate(-6,-6) scale(1,1)"><g><path fill="none" stroke="none"/><text fill="#000000" stroke="none" font-family="Arial" font-size="13px" font-style="normal" font-weight="normal" text-decoration="none" x="303.06884765625" y="134.5">+log(message: string, integer: type): void</text></g></g><g transform="translate(-6,-6) scale(1,1)"><g><path fill="none" stroke="none"/><text fill="#000000" stroke="none" font-family="Arial" font-size="13px" font-style="normal" font-weight="normal" text-decoration="none" x="303.06884765625" y="149.5">+exists(type: enum, name: string, vpcName: string): boolean</text></g></g><g transform="translate(-6,-6) scale(1,1)"><rect fill="#C0C0C0" stroke="none" x="367" y="407" width="233.3642578125" height="102" opacity="0.2"/></g><g transform="translate(-6,-6) scale(1,1)"><rect fill="#ffffff" stroke="none" x="360" y="400" width="233.3642578125" height="102"/></g><g transform="translate(-6,-6) scale(1,1)"><path fill="none" stroke="#000000" d="M 360 400 L 593.3642578125 400 L 593.3642578125 502 L 360 502 L 360 400 Z Z" stroke-miterlimit="10"/></g><g transform="translate(-6,-6) scale(1,1)"><path fill="none" stroke="#000000" d="M 360 425 L 593.3642578125 425" stroke-miterlimit="10"/></g><g transform="translate(-6,-6) scale(1,1)"><path fill="none" stroke="#000000" d="M 360 435 L 593.3642578125 435" stroke-miterlimit="10"/></g><g transform="translate(-6,-6) scale(1,1)"><g><path fill="none" stroke="none"/><text fill="#000000" stroke="none" font-family="Arial" font-size="13px" font-style="normal" font-weight="bold" text-decoration="none" x="418.63916015625" y="419.5">AwsCloudClientImpl</text></g></g><g transform="translate(-6,-6) scale(1,1)"><g><path fill="none" stroke="none"/><text fill="#000000" stroke="none" font-family="Arial" font-size="13px" font-style="normal" font-weight="normal" text-decoration="none" x="365" y="452.5">+regionExists(region: string): boolean</text><path fill="none" stroke="#000000" d="M 365 452.5 L 580.69970703125 452.5" stroke-miterlimit="10"/></g></g><g transform="translate(-6,-6) scale(1,1)"><g><path fill="none" stroke="none"/><text fill="#000000" stroke="none" font-family="Arial" font-size="13px" font-style="normal" font-weight="normal" text-decoration="none" x="365" y="467.5">-vpcExists(name: string): boolean</text></g></g><g transform="translate(-6,-6) scale(1,1)"><g><path fill="none" stroke="none"/><text fill="#000000" stroke="none" font-family="Arial" font-size="13px" font-style="normal" font-weight="normal" text-decoration="none" x="365" y="482.5">-instanceExists(name: string): boolean</text></g></g><g transform="translate(-6,-6) scale(1,1)"><g><path fill="none" stroke="none"/><text fill="#000000" stroke="none" font-family="Arial" font-size="13px" font-style="normal" font-weight="normal" text-decoration="none" x="365" y="497.5">-imageExists(name: string): boolean</text></g></g><g transform="translate(-6,-6) scale(1,1)"><rect fill="#C0C0C0" stroke="none" x="23" y="23" width="247.06884765625" height="130" opacity="0.2"/></g><g transform="translate(-6,-6) scale(1,1)"><rect fill="#ffffff" stroke="none" x="16" y="16" width="247.06884765625" height="130"/></g><g transform="translate(-6,-6) scale(1,1)"><path fill="none" stroke="#000000" d="M 16 16 L 263.06884765625 16 L 263.06884765625 146 L 16 146 L 16 16 Z Z" stroke-miterlimit="10"/></g><g transform="translate(-6,-6) scale(1,1)"><path fill="none" stroke="#000000" d="M 16 41 L 263.06884765625 41" stroke-miterlimit="10"/></g><g transform="translate(-6,-6) scale(1,1)"><path fill="none" stroke="#000000" d="M 16 94 L 263.06884765625 94" stroke-miterlimit="10"/></g><g transform="translate(-6,-6) scale(1,1)"><g><path fill="none" stroke="none"/><text fill="#000000" stroke="none" font-family="Arial" font-size="13px" font-style="normal" font-weight="bold" text-decoration="none" x="119.294921875" y="35.5">Logger</text></g></g><g transform="translate(-6,-6) scale(1,1)"><g><path fill="none" stroke="none"/><text fill="#000000" stroke="none" font-family="Arial" font-size="13px" font-style="normal" font-weight="normal" text-decoration="none" x="21" y="58.5">-logger: logger</text><path fill="none" stroke="#000000" d="M 21 58.5 L 104.8271484375 58.5" stroke-miterlimit="10"/></g></g><g transform="translate(-6,-6) scale(1,1)"><g><path fill="none" stroke="none"/><text fill="#000000" stroke="none" font-family="Arial" font-size="13px" font-style="normal" font-weight="normal" text-decoration="none" x="21" y="73.5">+integer: ERROR {readOnly}</text><path fill="none" stroke="#000000" d="M 21 73.5 L 187.55615234375 73.5" stroke-miterlimit="10"/></g></g><g transform="translate(-6,-6) scale(1,1)"><g><path fill="none" stroke="none"/><text fill="#000000" stroke="none" font-family="Arial" font-size="13px" font-style="normal" font-weight="normal" text-decoration="none" x="21" y="88.5">+integer: INFO {readOnly}</text><path fill="none" stroke="#000000" d="M 21 88.5 L 171.66162109375 88.5" stroke-miterlimit="10"/></g></g><g transform="translate(-6,-6) scale(1,1)"><g><path fill="none" stroke="none"/><text fill="#000000" stroke="none" font-family="Arial" font-size="13px" font-style="normal" font-weight="normal" text-decoration="none" x="21" y="111.5">-setupLogger(path: string): void</text><path fill="none" stroke="#000000" d="M 21 111.5 L 201.654296875 111.5" stroke-miterlimit="10"/></g></g><g transform="translate(-6,-6) scale(1,1)"><g><path fill="none" stroke="none"/><text fill="#000000" stroke="none" font-family="Arial" font-size="13px" font-style="normal" font-weight="normal" text-decoration="none" x="21" y="126.5">+info(message: string, path: string): void</text></g></g><g transform="translate(-6,-6) scale(1,1)"><g><path fill="none" stroke="none"/><text fill="#000000" stroke="none" font-family="Arial" font-size="13px" font-style="normal" font-weight="normal" text-decoration="none" x="21" y="141.5">+error(message: string, path: string): void</text></g></g><g transform="translate(-6,-6) scale(1,1)"><path fill="none" stroke="#000000" d="M 429 399 L 199 147" stroke-miterlimit="10" stroke-dasharray="3"/></g><g transform="translate(-6,-6) scale(1,1)"><path fill="none" stroke="#000000" d="M 208.9601695923165 151.66851386335026 L 199 147 L 202.74176564965668 157.34404127133342" stroke-miterlimit="10"/></g><g transform="translate(-6,-6) scale(1,1)"><path fill="none" stroke="#000000" d="M 476 399 Q 477 250 476 156" stroke-miterlimit="10"/></g><g transform="translate(-6,-6) scale(1,1)"><path fill="#FFFFFF" stroke="none" d="M 484.63477403719736 176.2346405287206 L 476 156 L 467.7976557429853 176.41375880844626"/></g><g transform="translate(-6,-6) scale(1,1)"><path fill="none" stroke="#000000" d="M 484.63477403719736 176.2346405287206 L 476 156 L 467.7976557429853 176.41375880844626 L 484.63477403719736 176.2346405287206" stroke-miterlimit="10"/></g><g transform="translate(-6,-6) scale(1,1)"><rect fill="#C0C0C0" stroke="none" x="755.06396484375" y="27" width="50.919921875" height="44" opacity="0.2"/></g><g transform="translate(-6,-6) scale(1,1)"><rect fill="#ffffff" stroke="none" x="748.06396484375" y="20" width="50.919921875" height="44"/></g><g transform="translate(-6,-6) scale(1,1)"><path fill="none" stroke="#000000" d="M 748.06396484375 20 L 798.98388671875 20 L 798.98388671875 64 L 748.06396484375 64 L 748.06396484375 20 Z Z" stroke-miterlimit="10"/></g><g transform="translate(-6,-6) scale(1,1)"><path fill="none" stroke="#000000" d="M 748.06396484375 45 L 798.98388671875 45" stroke-miterlimit="10"/></g><g transform="translate(-6,-6) scale(1,1)"><path fill="none" stroke="#000000" d="M 748.06396484375 55 L 798.98388671875 55" stroke-miterlimit="10"/></g><g transform="translate(-6,-6) scale(1,1)"><g><path fill="none" stroke="none"/><text fill="#000000" stroke="none" font-family="Arial" font-size="13px" font-style="normal" font-weight="bold" text-decoration="none" x="759.079833984375" y="39.5">Error</text></g></g><g transform="translate(-6,-6) scale(1,1)"><rect fill="#C0C0C0" stroke="none" x="692.25390625" y="149.5" width="176.5400390625" height="44" opacity="0.2"/></g><g transform="translate(-6,-6) scale(1,1)"><rect fill="#ffffff" stroke="none" x="685.25390625" y="142.5" width="176.5400390625" height="44"/></g><g transform="translate(-6,-6) scale(1,1)"><path fill="none" stroke="#000000" d="M 685.25390625 142.5 L 861.7939453125 142.5 L 861.7939453125 186.5 L 685.25390625 186.5 L 685.25390625 142.5 Z Z" stroke-miterlimit="10"/></g><g transform="translate(-6,-6) scale(1,1)"><path fill="none" stroke="#000000" d="M 685.25390625 167.5 L 861.7939453125 167.5" stroke-miterlimit="10"/></g><g transform="translate(-6,-6) scale(1,1)"><path fill="none" stroke="#000000" d="M 685.25390625 177.5 L 861.7939453125 177.5" stroke-miterlimit="10"/></g><g transform="translate(-6,-6) scale(1,1)"><g><path fill="none" stroke="none"/><text fill="#000000" stroke="none" font-family="Arial" font-size="13px" font-style="normal" font-weight="bold" text-decoration="none" x="695.8349609375" y="162">RegionNotFoundException</text></g></g><g transform="translate(-6,-6) scale(1,1)"><path fill="none" stroke="#000000" d="M 773 142 Q 774 80 774 65" stroke-miterlimit="10"/></g><g transform="translate(-6,-6) scale(1,1)"><path fill="#FFFFFF" stroke="none" d="M 782.419035512032 85.32534971524831 L 774 65 L 765.580964487968 85.32534971524831"/></g><g transform="translate(-6,-6) scale(1,1)"><path fill="none" stroke="#000000" d="M 782.419035512032 85.32534971524831 L 774 65 L 765.580964487968 85.32534971524831 L 782.419035512032 85.32534971524831" stroke-miterlimit="10"/></g><g transform="translate(-6,-6) scale(1,1)"><path fill="none" stroke="#000000" d="M 530 399 L 749 188" stroke-miterlimit="10" stroke-dasharray="3"/></g><g transform="translate(-6,-6) scale(1,1)"><path fill="none" stroke="#000000" d="M 744.6021702746234 198.08261343633652 L 749 188 L 738.7607804457663 192.01974911159857" stroke-miterlimit="10"/></g><g transform="translate(-6,-6) scale(1,1)"><g><path fill="none" stroke="none"/><text fill="#000000" stroke="none" font-family="Arial" font-size="13px" font-style="normal" font-weight="normal" text-decoration="none" x="602.5" y="288.5">+Throws</text></g></g></g></svg>
